PathFileType	4	(X/Y/Z)	/Users/itak/Documents/Research/Walk-IL/dataset/trc/00062_00006.trc
DataRate	CameraRate	NumFrames	NumMarkers	Units	OrigDataRate	OrigDataStartFrame	OrigNumFrames
100.000000	100.000000	4	53	mm	100.000000	433	693
Frame#	Time	RPSI			LPSI			L3			STRN			T10			C7			CLAV			RBAK			LBAK			LSHO			LUPA			LAEL			LAOL			LWTS			LWPS			LFRA			LIFD			LHPS			LHTS			RSHO			RUPA			RAEL			RAOL			RWTS			RWPS			RFRA			RIFD			RHTS			RHPS			RBHD			LFHD			RFHD			LBHD			LHIP			RHIP			RASI			LASI			LKNE			LTHI			LANK			LTIP			LTOE			LMT1			LMT5			LHEE			RKNE			RTHI			RANK			RTIP			RTOE			RMT1			RMT5			RHEE			
		X1	Y1	Z1	X2	Y2	Z2	X3	Y3	Z3	X4	Y4	Z4	X5	Y5	Z5	X6	Y6	Z6	X7	Y7	Z7	X8	Y8	Z8	X9	Y9	Z9	X10	Y10	Z10	X11	Y11	Z11	X12	Y12	Z12	X13	Y13	Z13	X14	Y14	Z14	X15	Y15	Z15	X16	Y16	Z16	X17	Y17	Z17	X18	Y18	Z18	X19	Y19	Z19	X20	Y20	Z20	X21	Y21	Z21	X22	Y22	Z22	X23	Y23	Z23	X24	Y24	Z24	X25	Y25	Z25	X26	Y26	Z26	X27	Y27	Z27	X28	Y28	Z28	X29	Y29	Z29	X30	Y30	Z30	X31	Y31	Z31	X32	Y32	Z32	X33	Y33	Z33	X34	Y34	Z34	X35	Y35	Z35	X36	Y36	Z36	X37	Y37	Z37	X38	Y38	Z38	X39	Y39	Z39	X40	Y40	Z40	X41	Y41	Z41	X42	Y42	Z42	X43	Y43	Z43	X44	Y44	Z44	X45	Y45	Z45	X46	Y46	Z46	X47	Y47	Z47	X48	Y48	Z48	X49	Y49	Z49	X50	Y50	Z50	X51	Y51	Z51	X52	Y52	Z52	X53	Y53	Z53	

434	4.33	7.475732803344727	1012.91552734375	-617.4091796875	80.49298858642578	1005.50830078125	-462.5809020996094	51.65402984619141	1076.134887695312	-530.2526245117188	-191.7006378173828	1272.240356445312	-455.1470031738281	68.44194030761719	1205.098022460938	-518.8700561523438	12.35928821563721	1472.656616210938	-503.8302917480469	-160.5211486816406	1386.37353515625	-462.7996520996094	55.56382751464844	1333.010375976562	-587.7030029296875	58.45244598388672	1436.804565429688	-410.6831665039062	-24.88057518005371	1442.12646484375	-316.6849670410156	5.850482940673828	1317.036865234375	-241.5926666259766	-25.06177711486816	1103.958984375	-207.4822845458984	17.33052062988281	1081.135375976562	-303.3195190429688	-201.0883636474609	921.1769409179688	-276.5393371582031	-145.6351318359375	882.0818481445312	-227.7330322265625	-78.08666229248047	1005.552368164062	-204.3691253662109	-278.4747009277344	757.6511840820312	-320.3534240722656	-205.5675354003906	817.929443359375	-237.6085205078125	-251.1788635253906	851.5706176757812	-280.7583312988281	-88.42740631103516	1435.07958984375	-658.2734985351562	-86.02329254150391	1369.933349609375	-722.3270263671875	-34.20821380615234	1119.915161132812	-779.8353881835938	-39.65414047241211	1087.46728515625	-684.2498168945312	-155.3241424560547	858.0939331054688	-736.8941040039062	-93.11616516113281	848.2462768554688	-794.717529296875	-42.53642654418945	1037.331420898438	-792.7090454101562	-145.3928833007812	670.0716552734375	-718.1370239257812	-168.6251983642578	753.0208129882812	-735.4351806640625	-123.672607421875	755.6409912109375	-793.6305541992188	9.299385070800781	1642.167846679688	-486.2728271484375	-201.2555541992188	1694.014892578125	-500.27197265625	-132.0200958251953	1700.168823242188	-393.5175476074219	-72.96563720703125	1629.140014648438	-595.8411865234375	20.37644958496094	942.938232421875	-337.0509033203125	-90.14720916748047	948.8701782226562	-665.3455200195312	-192.9729156494141	976.3838500976562	-598.9127197265625	-103.0033721923828	956.9409790039062	-346.6156921386719	-104.120246887207	488.0846862792969	-447.8009338378906	-52.32439804077148	618.90771484375	-390.9462280273438	3.053583860397339	45.76171875	-524.6737670898438	-47.14944458007812	246.5552215576172	-483.108154296875	-202.1015930175781	42.06659317016602	-531.5675048828125	-153.4802398681641	36.51399612426758	-581.8935546875	-98.42572784423828	41.38154220581055	-485.6185607910156	53.84875106811523	44.88473129272461	-603.4712524414062	-326.3501281738281	553.5302734375	-555.6695556640625	-233.4521942138672	805.9353637695312	-616.1595458984375	-175.1657562255859	99.30149841308594	-698.1712646484375	-306.0776672363281	431.6310424804688	-591.1759033203125	-343.0752258300781	72.77220916748047	-575.427734375	-274.3703308105469	76.93681335449219	-564.367919921875	-289.9927978515625	81.82364654541016	-662.0827026367188	-110.8302764892578	108.5828247070312	-665.7410888671875	
435	4.34	-2.394309759140015	1012.490478515625	-616.1182250976562	72.66788482666016	1005.111145019531	-462.2919006347656	43.05131912231445	1075.71533203125	-529.5664672851562	-199.7680969238281	1271.354736328125	-451.5799865722656	59.92745590209961	1204.683837890625	-518.172607421875	3.484244823455811	1472.100708007812	-502.3429870605469	-168.8174743652344	1385.521240234375	-459.5631713867188	46.02614593505859	1332.571533203125	-586.687744140625	50.64605331420898	1436.345581054688	-409.6287536621094	-31.84323310852051	1441.460815429688	-314.8491821289062	-0.6353892087936401	1316.345703125	-240.0507507324219	-32.10880661010742	1103.314453125	-205.7002716064453	10.21401786804199	1080.3525390625	-301.521484375	-210.0762939453125	923.0883178710938	-276.1476440429688	-155.4295806884766	883.1221923828125	-227.0056610107422	-86.34693145751953	1005.593078613281	-203.130859375	-289.3532104492188	760.6535034179688	-321.2095336914062	-216.1572570800781	819.7514038085938	-237.6275634765625	-260.9867858886719	854.08251953125	-280.9873962402344	-98.83535003662109	1434.405517578125	-655.7384643554688	-96.88782501220703	1369.31591796875	-719.8095092773438	-44.36940765380859	1119.678466796875	-777.8417358398438	-48.92691802978516	1087.043823242188	-682.252197265625	-162.9409790039062	856.84521484375	-734.3727416992188	-101.4107513427734	847.7547607421875	-792.886474609375	-52.28289794921875	1037.157958984375	-790.7532348632812	-151.3986511230469	668.8867797851562	-716.322021484375	-176.2868041992188	751.724609375	-733.1166381835938	-131.1798095703125	754.8800659179688	-791.7778930664062	0.3691460490226746	1641.496337890625	-484.9121704101562	-210.2371063232422	1693.191162109375	-496.6274108886719	-140.0142517089844	1699.428100585938	-390.6205444335938	-83.10887908935547	1628.389282226562	-593.5632934570312	14.65609931945801	942.583740234375	-335.7338256835938	-100.7708206176758	948.4173583984375	-662.6624145507812	-202.5801849365234	975.7433471679688	-594.64208984375	-108.9793853759766	956.2642822265625	-343.6410522460938	-107.4455947875977	487.0881958007812	-446.11572265625	-56.34664535522461	618.2897338867188	-389.3690795898438	2.879787683486938	45.77486038208008	-524.809326171875	-48.78124237060547	246.1238403320312	-482.452880859375	-202.2260437011719	41.9710693359375	-531.3604125976562	-153.5918273925781	36.48755264282227	-581.8972778320312	-98.58251953125	41.35369110107422	-485.5068359375	53.73092269897461	45.2099494934082	-603.4526977539062	-336.3048400878906	554.2650146484375	-547.850341796875	-243.6968231201172	805.7987670898438	-610.941162109375	-209.6563568115234	90.97554016113281	-686.0457153320312	-321.7862243652344	430.9911499023438	-582.0241088867188	-373.5113220214844	74.82940673828125	-556.2684936523438	-304.5038146972656	76.26319122314453	-547.9290771484375	-323.5225219726562	79.36792755126953	-645.1072387695312	-143.8370208740234	98.24225616455078	-656.3341064453125	
436	4.350000000000001	-12.23520660400391	1011.988891601562	-614.6171264648438	64.80331420898438	1004.66015625	-461.7834167480469	34.35540390014648	1075.17333984375	-528.6710205078125	-207.8431854248047	1270.396728515625	-447.9709777832031	51.36892318725586	1204.156494140625	-517.3582153320312	-5.419429302215576	1471.4423828125	-500.7833251953125	-177.190673828125	1384.601318359375	-456.3003234863281	36.45146942138672	1332.01904296875	-585.5748291015625	42.79272842407227	1435.798461914062	-408.509521484375	-38.8512077331543	1440.717407226562	-312.9718933105469	-7.20174503326416	1315.593139648438	-238.4600677490234	-39.26325225830078	1102.64013671875	-203.8194580078125	2.981305837631226	1079.505859375	-299.6151123046875	-219.0484619140625	924.8245849609375	-275.5645446777344	-165.1609802246094	884.093994140625	-226.0125427246094	-94.67890167236328	1005.587646484375	-201.7432861328125	-299.9302673339844	763.3469848632812	-321.6930847167969	-226.6403656005859	821.4542846679688	-237.3398742675781	-270.699951171875	856.3750610351562	-280.9586791992188	-109.2289505004883	1433.639038085938	-653.129638671875	-107.7295227050781	1368.610595703125	-717.2164916992188	-54.57522964477539	1119.358764648438	-775.8108520507812	-58.27622604370117	1086.531860351562	-680.2313842773438	-170.8311462402344	855.5844116210938	-731.8590087890625	-109.8684844970703	847.1994018554688	-791.0353393554688	-62.1076545715332	1036.88525390625	-788.7572021484375	-157.5057678222656	667.6625366210938	-714.5009765625	-184.1845550537109	750.399658203125	-730.7888793945312	-138.8256530761719	754.0601806640625	-789.9173583984375	-8.599271774291992	1640.727172851562	-483.4746704101562	-219.1351470947266	1692.28369140625	-492.8981628417969	-148.0148773193359	1698.60302734375	-387.6577453613281	-93.2738037109375	1627.548583984375	-591.2011108398438	8.862161636352539	942.1723022460938	-334.2636108398438	-111.2799606323242	947.8667602539062	-659.8129272460938	-212.1274261474609	974.9859008789062	-590.333984375	-115.0516815185547	955.5089111328125	-340.6388244628906	-110.9126510620117	486.0141906738281	-444.3392028808594	-60.51068496704102	617.6015625	-387.6737365722656	2.717466115951538	45.77126693725586	-524.9522094726562	-50.46067047119141	245.6772918701172	-481.7304382324219	-202.3362884521484	41.90412521362305	-531.1295776367188	-153.7333221435547	36.42146682739258	-581.9019775390625	-98.70491790771484	41.33209609985352	-485.3538208007812	53.59208297729492	45.5900764465332	-603.4498291015625	-345.6693115234375	554.5863037109375	-540.6318969726562	-253.6597290039062	805.4146728515625	-605.9247436523438	-243.8717346191406	83.32765960693359	-672.807861328125	-336.8902893066406	430.2518615722656	-573.1421508789062	-403.0722961425781	77.57606506347656	-536.5321044921875	-333.9705505371094	76.19210052490234	-530.8020629882812	-356.3769226074219	77.66361999511719	-627.3018188476562	-176.7713165283203	88.4530029296875	-645.7732543945312	
437	4.36	-22.05052185058594	1011.387512207031	-612.9034423828125	56.89870452880859	1004.141174316406	-461.0523071289062	25.5777473449707	1074.514526367188	-527.5637817382812	-215.9283752441406	1269.358642578125	-444.3161926269531	42.75964736938477	1203.515747070312	-516.4105834960938	-14.3565845489502	1470.681640625	-499.1497192382812	-185.6353302001953	1383.609375	-453.00927734375	26.84624481201172	1331.351440429688	-584.3570556640625	34.885009765625	1435.162963867188	-407.3196105957031	-45.91634750366211	1439.89697265625	-311.0498046875	-13.85498332977295	1314.781494140625	-236.8074798583984	-46.5073127746582	1101.931762695312	-201.8330993652344	-4.360936164855957	1078.59814453125	-297.603515625	-228.0043182373047	926.3748168945312	-274.7669677734375	-174.8198547363281	884.9773559570312	-224.7627716064453	-103.0700302124023	1005.521728515625	-200.2017364501953	-310.2127685546875	765.7328491210938	-321.7808227539062	-237.0006103515625	823.017578125	-236.7385711669922	-280.3271179199219	858.44091796875	-280.6476745605469	-119.6098098754883	1432.771728515625	-650.4481811523438	-118.5475234985352	1367.810424804688	-714.548828125	-64.82498168945312	1118.947998046875	-773.7522583007812	-67.69844818115234	1085.921630859375	-678.1952514648438	-179.0286560058594	854.306640625	-729.3489379882812	-118.5078201293945	846.5681762695312	-789.1597290039062	-72.01436614990234	1036.5048828125	-786.7332153320312	-163.7408142089844	666.39501953125	-712.6609497070312	-192.2977600097656	749.04150390625	-728.4391479492188	-146.6459045410156	753.1744384765625	-788.0433959960938	-17.60855484008789	1639.854614257812	-481.9613952636719	-227.9613800048828	1691.293579101562	-489.0872192382812	-156.0148773193359	1697.694213867188	-384.6292114257812	-103.4595489501953	1626.614013671875	-588.7576904296875	2.959941148757935	941.6884155273438	-332.6409912109375	-121.6912612915039	947.2022094726562	-656.7870483398438	-221.6325378417969	974.1156005859375	-585.9766235351562	-121.2281341552734	954.67431640625	-337.5971374511719	-114.5253295898438	484.8641357421875	-442.4874267578125	-64.83328247070312	616.846923828125	-385.8807067871094	2.571120262145996	45.76162719726562	-525.1015014648438	-52.1837043762207	245.2138061523438	-480.9724731445312	-202.4408264160156	41.84782028198242	-530.9056396484375	-153.9034423828125	36.3210334777832	-581.9100341796875	-98.7882080078125	41.32269668579102	-485.1714477539062	53.43010711669922	46.02242660522461	-603.4927368164062	-354.5313110351562	554.4758911132812	-534.072021484375	-263.3820495605469	804.788330078125	-601.1178588867188	-277.6300354003906	76.46968078613281	-658.512939453125	-351.4037780761719	429.40673828125	-564.5838623046875	-431.6527404785156	81.04940795898438	-516.342041015625	-362.6451721191406	76.78330230712891	-513.0836791992188	-388.4048156738281	76.78578948974609	-608.7684936523438	-209.4520416259766	79.33113861083984	-634.07763671875	
